<?xml version="1.0" encoding="UTF-8" standalone="no"?>
<!-- Generator: Adobe Illustrator 18.1.0, SVG Export Plug-In . SVG Version: 6.00 Build 0)  -->

<svg
   xmlns:dc="http://purl.org/dc/elements/1.1/"
   xmlns:cc="http://creativecommons.org/ns#"
   xmlns:rdf="http://www.w3.org/1999/02/22-rdf-syntax-ns#"
   xmlns:svg="http://www.w3.org/2000/svg"
   xmlns="http://www.w3.org/2000/svg"
   xmlns:sodipodi="http://sodipodi.sourceforge.net/DTD/sodipodi-0.dtd"
   xmlns:inkscape="http://www.inkscape.org/namespaces/inkscape"
   version="1.1"
   x="0px"
   y="0px"
   viewBox="0 0 596.021 500"
   style="enable-background:new 0 0 596.021 500;"
   xml:space="preserve"
   id="svg3073"
   inkscape:version="0.48.5 r10040"
   width="100%"
   height="100%"
   sodipodi:docname="#card.svg"><metadata
   id="metadata3159"><rdf:RDF><cc:Work
       rdf:about=""><dc:format>image/svg+xml</dc:format><dc:type
         rdf:resource="http://purl.org/dc/dcmitype/StillImage" /></cc:Work></rdf:RDF></metadata><defs
   id="defs3157">
		
		
		
		
		
		
		
		
		
		
		
		
		
		
	</defs><sodipodi:namedview
   pagecolor="#ffffff"
   bordercolor="#666666"
   borderopacity="1"
   objecttolerance="10"
   gridtolerance="10"
   guidetolerance="10"
   inkscape:pageopacity="0"
   inkscape:pageshadow="2"
   inkscape:window-width="1280"
   inkscape:window-height="962"
   id="namedview3155"
   showgrid="false"
   inkscape:zoom="0.472"
   inkscape:cx="-32.497975"
   inkscape:cy="250"
   inkscape:window-x="-8"
   inkscape:window-y="-8"
   inkscape:window-maximized="1"
   inkscape:current-layer="g3088" />
<g
   id="_x23_card">
	<circle
   style="fill:#DAC242;"
   cx="292.425"
   cy="250"
   r="250"
   id="circle3076" />
	<path
   inkscape:connector-curvature="0"
   id="path3080"
   d="m 384.009,397.426 c 0,0 -141.879,-18.619 -249.284,20.779 l -34.474,-80.362 243.78,13.466 39.978,46.117 z"
   style="opacity:0.12000002;fill:#231f20" /><path
   inkscape:connector-curvature="0"
   id="path3082"
   d="m 0,152.385 c 0,0 150.755,-33.713 253.704,6.192 l 130.614,238.541 c 0,0 -141.165,-40.733 -268.983,0 L 0,152.385 z"
   style="fill:#f2ede4" /><path
   inkscape:connector-curvature="0"
   id="path3084"
   d="m 384.009,397.426 c 0,0 114.335,-48.745 194.774,-36.966 L 545.13,305.955 384.009,364.296 v 33.13 z"
   style="opacity:0.12000002;fill:#231f20" /><path
   inkscape:connector-curvature="0"
   id="path3086"
   d="m 253.396,158.885 c 0,0 124.29,-65.159 205.55,-38.893 0,0 137.075,229.006 137.075,225.723 0,-3.283 -165.468,11.491 -212.011,51.711 L 253.396,158.885 z"
   style="fill:#fcf7eb" /><g
   id="g3088">
			
			
			
			
			
			
			
			
			
			
		<text
   xml:space="preserve"
   style="font-size:28.00000018px;font-style:normal;font-variant:normal;font-weight:normal;font-stretch:normal;line-height:125%;letter-spacing:0px;word-spacing:0px;fill:#ff0000;fill-opacity:1;stroke:none;font-family:Arial;-inkscape-font-specification:Arial"
   x="118.64407"
   y="211.86441"
   id="text3198"
   sodipodi:linespacing="125%"
   transform="translate(0,-1.6384699e-6)"><tspan
     sodipodi:role="line"
     id="tspan3200"
     x="118.64407"
     y="211.86441" /></text>
<text
   xml:space="preserve"
   style="font-size:24px;font-style:normal;font-variant:normal;font-weight:normal;font-stretch:normal;line-height:125%;letter-spacing:0px;word-spacing:0px;fill:#000000;fill-opacity:1;stroke:none;font-family:Arial;-inkscape-font-specification:Arial"
   x="97.653641"
   y="214.8347"
   id="text3202"
   sodipodi:linespacing="125%"
   transform="matrix(0.99952971,-0.03066521,0.03066521,0.99952971,0,0)"><tspan
     sodipodi:role="line"
     id="tspan3204"
     x="97.653641"
     y="214.8347"
     style="font-size:48px;font-style:normal;font-variant:normal;font-weight:normal;font-stretch:normal;fill:#d40000;font-family:Dynalight;-inkscape-font-specification:Dynalight">Naughty </tspan></text>
<text
   xml:space="preserve"
   style="font-size:24px;font-style:normal;font-variant:normal;font-weight:normal;font-stretch:normal;line-height:125%;letter-spacing:0px;word-spacing:0px;fill:#000000;fill-opacity:1;stroke:none;font-family:Arial;-inkscape-font-specification:Arial"
   x="211.86441"
   y="366.52542"
   id="text3206"
   sodipodi:linespacing="125%"
   transform="translate(0,-1.6384699e-6)"><tspan
     sodipodi:role="line"
     id="tspan3208"
     x="211.86441"
     y="366.52542" /></text>
<text
   xml:space="preserve"
   style="font-size:24px;font-style:normal;font-variant:normal;font-weight:normal;font-stretch:normal;line-height:125%;letter-spacing:0px;word-spacing:0px;fill:#000000;fill-opacity:1;stroke:none;font-family:Arial;-inkscape-font-specification:Arial"
   x="254.97441"
   y="290.51035"
   id="text3210"
   sodipodi:linespacing="125%"
   transform="matrix(0.95244443,-0.30471235,0.30471235,0.95244443,0,0)"><tspan
     sodipodi:role="line"
     id="tspan3212"
     x="254.97441"
     y="290.51035"
     style="font-size:40px;font-style:normal;font-variant:normal;font-weight:normal;font-stretch:normal;fill:#d40000;font-family:Dynalight;-inkscape-font-specification:Dynalight">Nice</tspan></text>
<path
   style="fill:none;stroke:#f81212;stroke-width:3;stroke-linecap:butt;stroke-linejoin:miter;stroke-miterlimit:4;stroke-opacity:0.34391533;stroke-dasharray:none"
   d="m 120.40653,251.64432 c 61.18688,-14.95755 133.94966,-6.7309 133.94966,-6.7309 l 0,0"
   id="path3218"
   inkscape:connector-curvature="0" /><path
   style="fill:none;stroke:#f81212;stroke-width:3;stroke-linecap:butt;stroke-linejoin:miter;stroke-miterlimit:4;stroke-opacity:0.34391533;stroke-dasharray:none"
   d="m 137.78788,270.03642 c 61.18688,-14.95755 133.94966,-6.7309 133.94966,-6.7309 l 0,0"
   id="path3218-1"
   inkscape:connector-curvature="0" /><path
   style="fill:none;stroke:#f81212;stroke-width:3;stroke-linecap:butt;stroke-linejoin:miter;stroke-miterlimit:4;stroke-opacity:0.34391533;stroke-dasharray:none"
   d="m 151.78788,290.03642 c 61.18688,-14.95755 133.94966,-6.7309 133.94966,-6.7309 l 0,0"
   id="path3218-7"
   inkscape:connector-curvature="0" /><path
   style="fill:none;stroke:#f81212;stroke-width:3;stroke-linecap:butt;stroke-linejoin:miter;stroke-miterlimit:4;stroke-opacity:0.34391533;stroke-dasharray:none"
   d="M 311.67954,236.61138 C 367.23247,206.92241 439.75793,196.8151 439.75793,196.8151 l 0,0"
   id="path3218-4"
   inkscape:connector-curvature="0" /><path
   style="fill:none;stroke:#f81212;stroke-width:3;stroke-linecap:butt;stroke-linejoin:miter;stroke-miterlimit:4;stroke-opacity:0.34391533;stroke-dasharray:none"
   d="m 325.08506,252.10895 c 55.55293,-29.68897 128.07839,-39.79627 128.07839,-39.79627 l 0,0"
   id="path3218-1-0"
   inkscape:connector-curvature="0" /><path
   style="fill:none;stroke:#f81212;stroke-width:3;stroke-linecap:butt;stroke-linejoin:miter;stroke-miterlimit:4;stroke-opacity:0.34391533;stroke-dasharray:none"
   d="m 335.61467,268.00404 c 55.55292,-29.68897 128.07838,-39.79628 128.07838,-39.79628 l 0,0"
   id="path3218-7-9"
   inkscape:connector-curvature="0" /></g><polygon
   id="polygon3110"
   points="478.161,318.705 486.186,313.088 486.186,303.458 492.874,309.343 503.306,307.334 498.869,313.89 504.911,320.578 493.944,318.438 487.791,325.165 486.186,318.705 "
   style="opacity:0.36000001;fill:#f22222" /><polygon
   id="polygon3112"
   points="534.954,309.679 539.8,309.679 536.57,313.783 538.723,317.082 532.263,315.052 527.308,318.36 528.494,313.783 523.379,309.948 529.301,309.679 531.186,305.91 "
   style="opacity:0.36000001;fill:#f22222" /><polygon
   id="polygon3114"
   points="508.328,335.945 514.002,331.974 514.002,325.165 518.73,329.326 526.106,327.906 522.969,332.541 527.24,337.269 519.486,335.756 515.137,340.512 514.002,335.945 "
   style="opacity:0.36000001;fill:#f22222" /><path
   inkscape:connector-curvature="0"
   id="path3116"
   d="m 441.982,129.007 c -5.647,-2.941 -14.501,-2.766 -23.256,10.382 l 22.162,12.601 c 0,-0.001 13.622,-16.46 1.094,-22.983 z"
   style="fill:#f9cc07" /><path
   inkscape:connector-curvature="0"
   id="path3118"
   d="m 418.726,139.389 c 0,0 2.189,4.94 8.345,8.36 6.156,3.42 13.817,4.241 13.817,4.241 0,0 -6.293,-10.701 -22.162,-12.601 z"
   style="fill:#d99748" /><path
   inkscape:connector-curvature="0"
   id="path3120"
   d="m 430.6,142.935 c 0,0 -8.415,5.036 -3.799,8.083 4.617,3.047 5.366,-7.142 5.366,-7.142 l -1.567,-0.941 z"
   style="fill:#f22222" /><g
   id="g3122">
			<path
   inkscape:connector-curvature="0"
   id="path3124"
   d="m 142.532,352.071 c 1.622,-1.037 3.266,-2.092 4.544,-3.531 1.964,-2.212 2.922,-5.284 2.564,-8.221 -0.066,-0.54 -0.174,-1.085 -0.106,-1.625 0.079,-0.617 0.382,-1.178 0.659,-1.735 0.713,-1.432 1.297,-3.041 0.97,-4.606 -0.327,-1.566 -1.891,-2.959 -3.442,-2.565 -0.686,-2.181 -2.521,-3.869 -4.61,-4.797 -2.089,-0.929 -4.417,-1.178 -6.703,-1.197 -3.526,-0.029 -7.21,0.526 -10.076,2.581 -2.866,2.055 -4.31,6.507 -3.098,9.819 -1.088,-1.817 -2.91,-1.59 -4.309,0 -1.4,1.59 -1.277,2.616 0,4.306 1.628,2.155 2.086,2.594 5.027,1.27 1.112,2.597 4.272,7.914 6.865,9.037 2.593,1.123 5.42,1.566 8.215,1.982 0.656,0.098 1.332,0.193 1.976,0.037 0.554,-0.138 1.044,-0.449 1.524,-0.755 z"
   style="fill:#fcdabf" />
			<path
   inkscape:connector-curvature="0"
   id="path3126"
   d="m 138.035,340.912 c 0.008,-0.016 -0.051,0.005 -0.062,-0.141 0,-0.127 0.026,-0.256 0.107,-0.413 0.159,-0.296 0.43,-0.718 0.891,-1.069 0.457,-0.344 1.05,-0.709 1.758,-0.892 0.352,-0.089 0.724,-0.153 1.102,-0.181 0.384,-0.016 0.715,-0.101 1.316,0.067 0.071,0.022 0.144,0.053 0.214,0.093 l 0.122,0.076 0.055,0.04 c 0.17,0.128 0.246,0.22 0.342,0.343 0.174,0.235 0.273,0.481 0.333,0.716 0.061,0.202 0.078,0.528 0.072,0.665 -0.003,0.201 -0.04,0.498 -0.098,0.679 -0.23,0.839 -0.858,1.352 -1.382,1.645 -0.541,0.313 -1.088,0.293 -1.413,0.257 -0.339,-0.051 -0.498,-0.174 -0.499,-0.158 l 0.014,-0.081 c -0.026,-0.024 0.749,0.206 1.616,-0.419 0.418,-0.292 0.821,-0.789 0.969,-1.411 0.145,-0.578 0.013,-1.443 -0.621,-1.676 -0.305,-0.107 -0.668,-0.083 -1.005,-0.075 -0.34,0.009 -0.675,0.051 -0.993,0.115 -0.636,0.127 -1.21,0.348 -1.657,0.612 -0.448,0.262 -0.777,0.553 -0.962,0.788 -0.091,0.115 -0.15,0.227 -0.16,0.285 -0.033,0.045 0.026,0.103 0.015,0.098 l -0.074,0.037 z"
   style="fill:#e8b69c" />
			<path
   inkscape:connector-curvature="0"
   id="path3128"
   d="m 133.801,337.908 c -1.022,0.036 -1.793,-1.066 -1.771,-2.088 0.01,-0.455 0.162,-0.946 0.544,-1.195 0.519,-0.34 1.266,-0.072 1.631,0.43 0.366,0.501 0.435,1.158 0.432,1.778 -0.001,0.235 -0.014,0.481 -0.129,0.685 -0.115,0.205 -0.365,0.353 -0.588,0.278"
   style="fill:#50535a" />
			<path
   inkscape:connector-curvature="0"
   id="path3130"
   d="m 142.514,337.19 c 1.022,0.036 1.793,-1.066 1.771,-2.088 -0.01,-0.455 -0.162,-0.946 -0.544,-1.195 -0.519,-0.34 -1.266,-0.072 -1.631,0.43 -0.365,0.502 -0.435,1.158 -0.432,1.778 0.001,0.235 0.014,0.481 0.129,0.685 0.115,0.205 0.365,0.353 0.588,0.278"
   style="fill:#50535a" />
			<path
   inkscape:connector-curvature="0"
   id="path3132"
   d="m 126.604,347.662 c -0.097,-1.236 0.443,-2.505 1.402,-3.292 0.958,-0.787 2.309,-1.069 3.502,-0.733 0.632,0.178 1.251,0.521 1.902,0.435 0.598,-0.079 1.083,-0.502 1.597,-0.817 0.971,-0.593 2.157,-0.825 3.28,-0.641 0.853,0.14 1.672,0.51 2.536,0.504 0.76,-0.005 1.485,-0.302 2.236,-0.422 1.117,-0.179 2.295,0.049 3.265,0.631 0.292,0.175 0.589,0.389 0.93,0.389 0.795,0 1.431,-1.146 2.144,-0.793 0.233,0.75 0.169,1.588 -0.176,2.293 1.271,0.565 1.401,2.335 1.042,3.679 -0.115,0.43 -0.257,0.905 -0.057,1.303 0.382,0.76 1.697,0.663 2.014,1.452 0.218,0.543 -0.19,1.216 0.1,1.725 0.227,0.399 0.753,0.478 1.193,0.609 1.699,0.506 2.75,2.563 2.163,4.236 1.596,-0.23 3.09,1.604 2.543,3.12 -0.547,1.516 -2.868,1.974 -3.949,0.778 -0.183,-0.203 -0.358,-0.454 -0.627,-0.502 -0.297,-0.052 -0.564,0.167 -0.795,0.36 -1.297,1.085 -3.242,1.779 -4.649,0.841 -0.249,-0.166 -0.472,-0.378 -0.752,-0.485 -0.471,-0.181 -0.996,-0.028 -1.484,0.104 -2.864,0.772 -5.936,0.756 -8.791,-0.045 -0.916,-0.257 -1.829,-0.605 -2.556,-1.219 -0.726,-0.614 -1.244,-1.536 -1.177,-2.485 0.018,-0.259 0.072,-0.545 -0.077,-0.757 -0.096,-0.137 -0.257,-0.21 -0.411,-0.275 -1.585,-0.674 -3.272,-1.198 -4.616,-2.275 -1.343,-1.077 -2.274,-2.915 -1.685,-4.533 0.083,-0.227 0.193,-0.479 0.093,-0.699 -0.092,-0.2 -0.321,-0.287 -0.502,-0.413 -0.724,-0.498 -0.489,-1.847 0.362,-2.073 z"
   style="fill:#f8f8f8" />
			<path
   inkscape:connector-curvature="0"
   id="path3134"
   d="m 135.564,325.763 c -1.216,0.113 -2.441,0.002 -3.66,0.068 -2.874,0.154 -5.755,1.281 -8.559,0.637 -0.222,-0.051 -0.458,-0.123 -0.6,-0.301 -0.123,-0.154 -0.153,-0.36 -0.177,-0.555 -0.462,-3.792 0.049,-7.698 1.471,-11.244 0.29,-0.722 0.624,-1.441 1.146,-2.018 0.578,-0.64 1.35,-1.067 2.112,-1.471 3.817,-2.028 7.89,-3.845 12.209,-4.035 2.698,-0.118 5.389,0.407 7.979,1.173 3.199,0.947 6.275,2.26 9.343,3.571 0.352,0.15 0.716,0.309 0.968,0.597 0.252,0.288 0.356,0.744 0.133,1.054 -1.34,-0.812 -2.972,-1.13 -4.519,-0.88 -0.899,0.146 -1.778,0.476 -2.687,0.443 -0.467,-0.017 -0.924,-0.129 -1.385,-0.206 -1.319,-0.22 -2.687,-0.142 -3.973,0.224 -1.082,0.308 -2.282,1.124 -2.12,2.237 0.083,0.573 0.516,1.024 0.938,1.421 1.262,1.189 2.656,2.318 3.432,3.868 0.405,0.81 0.624,1.712 0.635,2.618 0.005,0.416 -0.05,0.87 -0.343,1.165 -0.521,0.525 -1.392,0.243 -2.107,0.058 -3.377,-0.877 -6.763,1.253 -10.236,1.576 z"
   style="fill:#f20505" />
			<path
   inkscape:connector-curvature="0"
   id="path3136"
   d="m 122.242,334.986 c -0.719,0.087 -1.25,-4.522 -1.25,-4.522 0,0 -0.643,-2.833 0.663,-3.626 1.306,-0.793 2.343,-2.087 5.661,-2.857 3.318,-0.77 11.611,-3.263 17.625,-1.223 0,0 2.385,0.34 3.318,1.813 0.933,1.473 1.527,2.637 0.726,3.74 -0.801,1.103 0.588,1.809 -0.313,2.278 -0.629,0.327 -3.842,-0.805 -5.756,-1.145 -1.914,-0.34 -3.854,-1.096 -5.061,-1.02 -1.208,0.076 -1.442,-0.416 -3.185,0.227 -1.743,0.643 -4.554,0.227 -5.902,1.587 -1.349,1.359 -5.2,4.587 -6.526,4.748 z"
   style="fill:#f8f8f8" />
			<path
   inkscape:connector-curvature="0"
   id="path3138"
   d="m 158.178,317.287 c 0.156,0.201 0.392,0.321 0.622,0.429 1.218,0.572 2.65,0.991 3.888,0.463 1.036,-0.442 1.721,-1.481 2.013,-2.569 0.292,-1.088 0.249,-2.234 0.197,-3.359 -0.018,-0.39 -0.043,-0.801 -0.258,-1.127 -0.355,-0.536 -1.079,-0.649 -1.718,-0.714 -0.887,-0.09 -1.888,-0.145 -2.556,0.446 -0.289,0.255 -0.476,0.603 -0.719,0.902 -0.485,0.599 -1.179,0.99 -1.72,1.539 -0.541,0.549 -0.928,1.393 -0.587,2.084 0.115,0.234 0.304,0.427 0.416,0.662 0.189,0.399 0.152,0.896 0.422,1.244 z"
   style="fill:#f8f8f8" />
		</g><path
   inkscape:connector-curvature="0"
   id="path3140"
   d="m 347.089,123.445 c 0,0 163.213,82.111 163.648,82.834 0.435,0.724 11.447,19.014 11.447,19.014 L 317.893,132.128 c 0.001,0 19.837,-6.395 29.196,-8.683 z"
   style="fill:#f20505" /><g
   id="g3142">
			<path
   inkscape:connector-curvature="0"
   id="path3144"
   d="m 298.503,139.081 c 0,0 -31.9,-21.292 -21.777,-37.708 0,0 12.586,-13.456 52.258,18.854 0,0 6.293,3.504 8.482,7.236 0,0 -14.451,9.927 -38.963,11.618 z"
   style="fill:#f20505" />
			<path
   inkscape:connector-curvature="0"
   id="path3146"
   d="m 363.19,120.729 c 1.597,-1.165 2.65,-2.939 2.906,-4.899 1.216,-9.311 3.522,-37.292 -11.94,-41.544 0,0 -13.784,-6.131 -20.794,44.552 0,0 -1.669,4.403 -0.727,8.626 0,-0.001 12.739,6.262 30.555,-6.735 z"
   style="fill:#f20505" />
			<path
   inkscape:connector-curvature="0"
   id="path3148"
   d="m 296.425,134.479 c 0,0 -18.058,-10.397 -19.152,-22.709 0,0 -3.01,-4.651 0,-5.472 3.01,-0.821 11.218,10.397 19.152,28.181 z"
   style="fill:#a60303" />
			<path
   inkscape:connector-curvature="0"
   id="path3150"
   d="m 340.343,124.695 c 0.209,1.223 0.278,2.552 -0.606,3.595 -0.956,1.127 -2.798,1.646 -4.557,1.899 -3.093,0.444 -6.849,0.071 -8.474,-1.936 -1.499,-1.853 -0.535,-4.236 0.662,-6.207 1.018,-1.675 2.442,-3.463 4.832,-3.932 2.203,-0.433 4.587,0.472 5.955,1.827 1.37,1.354 1.901,3.073 2.188,4.754 z"
   style="fill:#a60303" />
			<path
   inkscape:connector-curvature="0"
   id="path3152"
   d="m 338.292,124.659 c 0.156,1.223 0.207,2.552 -0.45,3.595 -0.711,1.127 -2.08,1.646 -3.389,1.899 -2.3,0.444 -5.093,0.071 -6.301,-1.936 -1.115,-1.853 -0.398,-4.236 0.492,-6.207 0.757,-1.675 1.816,-3.463 3.593,-3.932 1.638,-0.433 3.411,0.472 4.428,1.827 1.018,1.354 1.413,3.073 1.627,4.754 z"
   style="fill:#f20505" />
		</g>
</g>
<g
   id="Livello_1">
</g>
</svg>